<?xml version="1.0" encoding="UTF-8" standalone="no"?>
<svg
   xmlns:dc="http://purl.org/dc/elements/1.1/"
   xmlns:cc="http://creativecommons.org/ns#"
   xmlns:rdf="http://www.w3.org/1999/02/22-rdf-syntax-ns#"
   xmlns:svg="http://www.w3.org/2000/svg"
   xmlns="http://www.w3.org/2000/svg"
   xml:space="preserve"
   enable-background="new 0 0 300 300"
   viewBox="0 0 81.533019 77.523938"
   height="79"
   width="80"
   y="0px"
   x="0px"
   id="Layer_1"
   version="1.1"><metadata
   id="metadata21"><rdf:RDF><cc:Work
       rdf:about=""><dc:format>image/svg+xml</dc:format><dc:type
         rdf:resource="http://purl.org/dc/dcmitype/StillImage" /><dc:title></dc:title></cc:Work></rdf:RDF></metadata><defs
   id="defs19" />
<g
   transform="translate(-210.86462,-109.93165)"
   id="Слой_x0020_1">
	<path
   style="fill:#047000"
   id="path2"
   d="m 231.889,169.71 c -0.222,-0.592 -0.295,-1.996 -0.147,-3.179 0.147,-1.626 1.404,-2.809 5.765,-5.839 5.987,-4.139 7.688,-6.061 6.947,-7.981 -0.369,-0.962 -1.552,-1.183 -5.912,-1.183 h -5.47 v -2.218 -2.217 h 7.687 c 8.426,0 8.87,0.222 9.608,4.435 0.813,4.655 -0.296,6.726 -6.134,10.938 l -5.396,3.843 h 5.248 5.248 v 2.217 2.218 h -8.5 c -6.728,0 -8.649,-0.222 -8.944,-1.034 z" />
	<path
   style="fill:#047000"
   id="path4"
   d="m 264.854,168.896 c 0,-1.848 -0.074,-1.848 -5.766,-1.848 -6.43,0 -7.539,-0.592 -7.539,-4.065 0,-1.774 1.332,-3.621 6.357,-9.017 5.838,-6.356 6.577,-6.874 9.164,-6.874 3.473,0 3.695,0.518 3.695,8.943 0,6.06 0.074,6.577 1.479,6.577 1.183,0 1.478,0.518 1.478,2.219 0,1.699 -0.295,2.217 -1.478,2.217 -1.109,0 -1.479,0.518 -1.479,1.849 0,1.699 -0.295,1.847 -2.956,1.847 -2.661,0 -2.955,-0.147 -2.955,-1.848 z m 0,-10.496 v -4.211 l -2.292,2.217 c -1.257,1.182 -2.956,3.03 -3.769,4.213 l -1.404,1.994 h 3.695 3.77 v -4.211 z" />
	<g
   id="_298153792">
		<path
   style="fill:#047000"
   d="m 38.923,148.749 c 0.043,-0.122 0.11,-0.257 0.184,-0.406 0.082,-0.157 0.17,-0.285 0.266,-0.399 0.098,-0.114 0.202,-0.172 0.304,-0.18 0.068,-0.006 0.135,0.016 0.223,0.051 0.083,0.043 0.149,0.122 0.215,0.25 0.059,0.136 0.097,0.328 0.097,0.599 l -0.179,23.318 H 45.9 v -26.354 c -0.007,-0.913 -0.229,-1.654 -0.658,-2.239 -0.431,-0.578 -1.023,-1.006 -1.779,-1.284 -0.749,-0.279 -1.615,-0.415 -2.585,-0.415 -0.562,-0.006 -1.103,0.037 -1.623,0.13 -0.51,0.098 -0.999,0.277 -1.457,0.541 -0.461,0.271 -0.891,0.655 -1.29,1.169 -0.392,0.513 -0.763,1.184 -1.096,2.012 l -8.043,19.979 c -0.135,0.328 -0.275,0.592 -0.422,0.799 -0.149,0.199 -0.291,0.307 -0.423,0.313 -0.133,-0.007 -0.275,-0.114 -0.421,-0.313 -0.149,-0.207 -0.29,-0.471 -0.423,-0.799 l -8.044,-19.979 c -0.333,-0.828 -0.696,-1.499 -1.095,-2.012 -0.4,-0.512 -0.83,-0.897 -1.289,-1.169 -0.46,-0.265 -0.941,-0.443 -1.46,-0.541 -0.51,-0.093 -1.051,-0.136 -1.623,-0.13 -0.184,-0.006 -0.474,0.007 -0.866,0.037 -0.386,0.028 -0.816,0.106 -1.283,0.228 -0.474,0.122 -0.925,0.327 -1.363,0.605 -0.436,0.278 -0.792,0.664 -1.073,1.163 -0.281,0.492 -0.43,1.126 -0.437,1.904 v 26.355 h 5.866 l -0.134,-23.318 c 0,-0.051 0,-0.15 0.017,-0.292 0.014,-0.143 0.058,-0.279 0.132,-0.408 0.067,-0.12 0.179,-0.192 0.342,-0.199 0.088,0.007 0.185,0.065 0.282,0.179 0.103,0.115 0.192,0.242 0.281,0.399 0.082,0.149 0.148,0.285 0.193,0.406 l 7.955,19.979 c 0.362,0.934 0.733,1.662 1.11,2.189 0.386,0.521 0.838,0.891 1.363,1.098 0.527,0.214 1.179,0.313 1.971,0.307 0.637,0 1.185,-0.058 1.63,-0.186 0.451,-0.121 0.837,-0.32 1.164,-0.599 0.318,-0.278 0.607,-0.649 0.866,-1.112 0.267,-0.456 0.525,-1.026 0.786,-1.697 z"
   id="_231766824" />
		<path
   style="fill:#047000"
   d="m 62.255,149.048 c -0.704,-0.007 -1.474,0.007 -2.305,0.05 -0.828,0.037 -1.672,0.129 -2.532,0.279 -0.86,0.15 -1.697,0.392 -2.496,0.719 -0.801,0.328 -1.526,0.777 -2.178,1.349 -0.674,0.62 -1.208,1.325 -1.616,2.116 -0.408,0.793 -0.711,1.619 -0.911,2.475 -0.207,0.856 -0.341,1.69 -0.408,2.504 -0.067,0.806 -0.097,1.539 -0.088,2.189 -0.008,0.584 0.021,1.27 0.083,2.039 0.058,0.777 0.184,1.59 0.375,2.432 0.202,0.842 0.504,1.661 0.913,2.459 0.406,0.8 0.955,1.512 1.651,2.14 0.652,0.563 1.377,1.005 2.178,1.341 0.798,0.328 1.636,0.57 2.496,0.727 0.86,0.158 1.703,0.264 2.532,0.307 0.831,0.051 1.601,0.072 2.305,0.064 0.688,0.008 1.444,-0.014 2.273,-0.064 0.83,-0.043 1.682,-0.148 2.549,-0.307 0.874,-0.156 1.711,-0.398 2.518,-0.727 0.807,-0.336 1.526,-0.777 2.17,-1.341 0.585,-0.521 1.104,-1.205 1.555,-2.032 0.453,-0.834 0.809,-1.847 1.068,-3.037 0.259,-1.184 0.392,-2.582 0.4,-4.172 0.006,-0.607 -0.022,-1.305 -0.088,-2.09 -0.067,-0.791 -0.201,-1.604 -0.408,-2.451 -0.201,-0.85 -0.504,-1.662 -0.911,-2.453 -0.401,-0.793 -0.941,-1.498 -1.617,-2.118 -0.652,-0.57 -1.376,-1.019 -2.177,-1.348 -0.8,-0.328 -1.63,-0.57 -2.497,-0.72 -0.859,-0.15 -1.703,-0.242 -2.532,-0.278 -0.827,-0.044 -1.59,-0.059 -2.302,-0.052 z m -7.156,11.638 c -0.006,-0.372 0,-0.813 0.023,-1.32 0.021,-0.513 0.073,-1.048 0.162,-1.611 0.089,-0.563 0.229,-1.111 0.437,-1.639 0.201,-0.535 0.482,-1.006 0.845,-1.42 0.503,-0.534 1.081,-0.935 1.749,-1.191 0.666,-0.256 1.348,-0.428 2.043,-0.498 0.688,-0.079 1.319,-0.115 1.897,-0.107 0.629,-0.008 1.281,0.028 1.955,0.107 0.674,0.07 1.333,0.242 1.97,0.498 0.638,0.257 1.208,0.657 1.718,1.191 0.541,0.592 0.911,1.248 1.125,1.96 0.208,0.714 0.334,1.42 0.364,2.125 0.028,0.699 0.037,1.333 0.022,1.905 0.006,0.662 -0.008,1.332 -0.06,2.01 -0.044,0.684 -0.177,1.348 -0.4,1.998 -0.221,0.648 -0.584,1.246 -1.096,1.811 -0.517,0.549 -1.088,0.955 -1.71,1.226 -0.614,0.278 -1.252,0.457 -1.911,0.544 -0.659,0.084 -1.319,0.119 -1.977,0.113 -0.631,0.006 -1.283,-0.029 -1.956,-0.113 -0.674,-0.087 -1.335,-0.266 -1.971,-0.544 -0.637,-0.271 -1.207,-0.677 -1.717,-1.226 -0.482,-0.55 -0.831,-1.155 -1.045,-1.811 -0.215,-0.664 -0.347,-1.334 -0.4,-2.025 -0.054,-0.686 -0.075,-1.349 -0.067,-1.983 z"
   id="_2317668241" />
		<path
   style="fill:#047000"
   d="m 100.785,171.979 v -19.465 c -0.014,-0.834 -0.155,-1.49 -0.436,-1.969 -0.274,-0.478 -0.615,-0.82 -1.007,-1.034 -0.392,-0.213 -0.778,-0.342 -1.141,-0.399 -0.371,-0.05 -0.645,-0.071 -0.837,-0.064 -0.355,-0.007 -0.725,0.036 -1.096,0.115 -0.37,0.078 -0.74,0.234 -1.096,0.456 -0.354,0.221 -0.696,0.549 -1.008,0.97 l -10.488,14.846 c -0.089,0.136 -0.179,0.271 -0.281,0.398 -0.097,0.122 -0.208,0.193 -0.341,0.2 -0.17,0 -0.274,-0.05 -0.311,-0.157 -0.037,-0.1 -0.052,-0.249 -0.044,-0.441 l 0.221,-16.129 h -5.198 v 19.723 c -0.008,0.307 0.028,0.643 0.103,1.006 0.073,0.363 0.229,0.713 0.459,1.049 0.229,0.335 0.569,0.605 1.03,0.819 0.458,0.214 1.065,0.328 1.828,0.335 0.584,0 1.082,-0.064 1.481,-0.199 0.392,-0.136 0.741,-0.336 1.036,-0.6 0.297,-0.263 0.587,-0.598 0.861,-0.998 l 10.355,-14.588 c 0.178,-0.25 0.312,-0.414 0.414,-0.493 0.097,-0.079 0.163,-0.114 0.208,-0.107 0.17,0 0.26,0.057 0.266,0.171 0.016,0.107 0.016,0.251 0,0.43 l -0.177,16.129 h 5.199 z M 89.32,145.196 c -0.518,0.008 -1.045,-0.057 -1.586,-0.191 -0.533,-0.143 -1.029,-0.421 -1.481,-0.835 -0.163,-0.163 -0.318,-0.35 -0.467,-0.562 -0.149,-0.215 -0.274,-0.436 -0.385,-0.657 -0.111,-0.228 -0.2,-0.435 -0.26,-0.62 h -4.043 c 0.162,0.549 0.378,1.097 0.637,1.641 0.26,0.548 0.547,1.055 0.874,1.518 0.325,0.471 0.667,0.856 1.022,1.163 0.585,0.492 1.215,0.854 1.888,1.098 0.675,0.242 1.341,0.399 2.001,0.47 0.658,0.071 1.259,0.107 1.8,0.101 0.541,0.007 1.14,-0.029 1.8,-0.101 0.659,-0.071 1.326,-0.228 2,-0.47 0.674,-0.244 1.303,-0.607 1.889,-1.098 0.355,-0.307 0.696,-0.692 1.021,-1.163 0.326,-0.463 0.615,-0.97 0.874,-1.518 0.26,-0.543 0.474,-1.092 0.637,-1.641 h -4.043 c -0.06,0.186 -0.149,0.392 -0.26,0.62 -0.112,0.221 -0.237,0.441 -0.385,0.657 -0.148,0.212 -0.305,0.399 -0.466,0.562 -0.453,0.415 -0.95,0.692 -1.481,0.835 -0.542,0.135 -1.069,0.2 -1.586,0.191 z"
   id="_23176682412" />
		<path
   style="fill:#047000"
   d="m 115.096,167.486 h -2.622 v 4.494 h 36.131 v -4.494 h -2.623 l -10.443,-22.632 c -0.316,-0.713 -0.688,-1.305 -1.11,-1.775 -0.423,-0.464 -0.947,-0.813 -1.571,-1.049 -0.621,-0.228 -1.385,-0.343 -2.295,-0.343 -1.038,0.007 -1.883,0.159 -2.519,0.443 -0.637,0.285 -1.14,0.663 -1.511,1.141 -0.378,0.477 -0.697,1.005 -0.949,1.583 z m 14.71,-19.422 c 0.029,-0.093 0.083,-0.214 0.157,-0.357 0.072,-0.149 0.162,-0.277 0.266,-0.399 0.104,-0.113 0.214,-0.178 0.333,-0.185 0.118,0.007 0.221,0.072 0.312,0.185 0.087,0.122 0.169,0.25 0.236,0.399 0.067,0.143 0.118,0.265 0.163,0.357 l 8.71,19.422 h -18.888 z"
   id="_231766824123" />
		<path
   style="fill:#047000"
   d="m 161.85,149.048 c -0.705,-0.007 -1.475,0.007 -2.305,0.05 -0.828,0.037 -1.673,0.129 -2.533,0.279 -0.859,0.15 -1.697,0.392 -2.495,0.719 -0.801,0.328 -1.526,0.777 -2.178,1.349 -0.675,0.62 -1.208,1.325 -1.616,2.116 -0.407,0.793 -0.71,1.619 -0.91,2.475 -0.207,0.856 -0.341,1.69 -0.408,2.504 -0.067,0.806 -0.097,1.539 -0.088,2.189 -0.008,0.584 0.021,1.27 0.083,2.039 0.058,0.777 0.184,1.59 0.375,2.432 0.201,0.842 0.504,1.661 0.913,2.459 0.406,0.8 0.955,1.512 1.651,2.14 0.651,0.563 1.377,1.005 2.178,1.341 0.798,0.328 1.636,0.57 2.495,0.727 0.86,0.158 1.703,0.264 2.533,0.307 0.83,0.051 1.6,0.072 2.305,0.064 0.688,0.008 1.443,-0.014 2.273,-0.064 0.83,-0.043 1.682,-0.148 2.549,-0.307 0.873,-0.156 1.711,-0.398 2.518,-0.727 0.807,-0.336 1.525,-0.777 2.17,-1.341 0.586,-0.521 1.104,-1.205 1.555,-2.032 0.453,-0.834 0.81,-1.847 1.068,-3.037 0.259,-1.184 0.393,-2.582 0.4,-4.172 0.006,-0.607 -0.022,-1.305 -0.088,-2.09 -0.068,-0.791 -0.201,-1.604 -0.409,-2.451 -0.2,-0.85 -0.503,-1.662 -0.911,-2.453 -0.4,-0.793 -0.939,-1.498 -1.615,-2.118 -0.652,-0.57 -1.376,-1.019 -2.177,-1.348 -0.8,-0.328 -1.63,-0.57 -2.497,-0.72 -0.858,-0.15 -1.703,-0.242 -2.532,-0.278 -0.83,-0.044 -1.593,-0.059 -2.304,-0.052 z m -7.157,11.638 c -0.006,-0.372 0,-0.813 0.023,-1.32 0.021,-0.513 0.074,-1.048 0.162,-1.611 0.088,-0.563 0.229,-1.111 0.436,-1.639 0.201,-0.535 0.482,-1.006 0.846,-1.42 0.504,-0.534 1.082,-0.935 1.748,-1.191 0.667,-0.256 1.348,-0.428 2.044,-0.498 0.69,-0.079 1.319,-0.115 1.897,-0.107 0.629,-0.008 1.281,0.028 1.955,0.107 0.674,0.07 1.332,0.242 1.971,0.498 0.637,0.257 1.207,0.657 1.717,1.191 0.541,0.592 0.91,1.248 1.127,1.96 0.207,0.714 0.333,1.42 0.362,2.125 0.028,0.699 0.037,1.333 0.022,1.905 0.006,0.662 -0.008,1.332 -0.061,2.01 -0.043,0.684 -0.177,1.348 -0.398,1.998 -0.223,0.648 -0.586,1.246 -1.098,1.811 -0.518,0.549 -1.088,0.955 -1.71,1.226 -0.614,0.278 -1.252,0.457 -1.911,0.544 -0.659,0.084 -1.318,0.119 -1.977,0.113 -0.631,0.006 -1.282,-0.029 -1.957,-0.113 -0.674,-0.087 -1.333,-0.266 -1.971,-0.544 -0.636,-0.271 -1.206,-0.677 -1.717,-1.226 -0.482,-0.55 -0.831,-1.155 -1.045,-1.811 -0.216,-0.664 -0.348,-1.334 -0.401,-2.025 -0.049,-0.686 -0.071,-1.349 -0.064,-1.983 z"
   id="_2317668241234" />
		<path
   style="fill:#047000"
   d="m 201.001,155.636 c 0.054,-0.101 0.11,-0.205 0.187,-0.319 0.073,-0.122 0.148,-0.186 0.215,-0.193 0.053,0 0.104,0.043 0.17,0.115 0.06,0.078 0.089,0.184 0.098,0.313 l -0.224,16.43 h 5.2 V 152.3 c -0.007,-0.741 -0.199,-1.354 -0.57,-1.832 -0.378,-0.478 -0.867,-0.835 -1.475,-1.07 -0.613,-0.235 -1.272,-0.35 -1.999,-0.35 -0.653,-0.007 -1.23,0.071 -1.739,0.221 -0.506,0.157 -0.95,0.415 -1.32,0.77 -0.377,0.357 -0.688,0.842 -0.941,1.448 l -5.953,14.418 c -0.029,0.079 -0.092,0.186 -0.164,0.328 -0.073,0.143 -0.163,0.271 -0.252,0.385 -0.09,0.115 -0.178,0.179 -0.252,0.186 -0.075,-0.007 -0.162,-0.07 -0.251,-0.186 -0.091,-0.113 -0.179,-0.242 -0.253,-0.385 -0.074,-0.143 -0.133,-0.249 -0.163,-0.328 l -5.955,-14.418 c -0.251,-0.605 -0.563,-1.091 -0.941,-1.448 -0.37,-0.355 -0.813,-0.613 -1.317,-0.77 -0.511,-0.15 -1.09,-0.228 -1.742,-0.221 -0.717,0 -1.385,0.114 -1.999,0.35 -0.606,0.235 -1.096,0.592 -1.466,1.07 -0.378,0.477 -0.57,1.09 -0.577,1.832 v 19.682 h 5.199 l -0.222,-16.43 c -0.009,-0.07 0.006,-0.15 0.029,-0.243 0.029,-0.085 0.111,-0.135 0.236,-0.142 0.088,0.014 0.162,0.072 0.229,0.186 0.062,0.114 0.105,0.207 0.128,0.284 l 6.044,14.718 c 0.119,0.307 0.289,0.6 0.525,0.885 0.237,0.285 0.557,0.527 0.963,0.713 0.406,0.186 0.918,0.278 1.532,0.285 0.624,-0.007 1.134,-0.1 1.534,-0.285 0.406,-0.186 0.726,-0.428 0.963,-0.713 0.237,-0.285 0.414,-0.578 0.525,-0.885 z"
   id="_23176682412345" />
	</g>
</g>
<path
   style="fill:#eeb31f"
   id="path14"
   d="m 80.607378,35.642342 -33.185,-33.389 c -0.042,-0.043 -0.086,-0.085 -0.132,-0.125 -3.623,-3.252 -9.099,-3.264 -12.736,-0.027 -0.046,0.04 -0.09,0.082 -0.132,0.124 l -33.48599995,33.407 c -1.246,1.242 -1.249,3.258 -0.006,4.502 1.24400005,1.245 3.26000005,1.247 4.50400005,0.004 l 2.528,-2.521 v 27.487 c 0,7.021 5.7149999,12.733 12.7389999,12.733 h 40.13 c 7.024,0 12.738,-5.712 12.738,-12.733 0,-1.758 -1.426,-3.184 -3.185,-3.184 -1.76,0 -3.185,1.426 -3.185,3.184 0,3.511 -2.857,6.366 -6.369,6.366 h -40.13 c -3.512,0 -6.369,-2.855 -6.369,-6.366 v -33.745 c 0,-0.032 -0.001,-0.063 -0.001,-0.096 l 24.516,-24.458 c 1.193,-1.012 2.943,-1.009 4.132,0.009 l 24.222,24.372 v 18 c 0,1.759 1.425,3.184 3.185,3.184 1.759,0 3.185,-1.425 3.185,-3.184 v -11.591 l 2.519,2.534 c 0.623,0.625 1.44,0.939 2.26,0.939 0.812,0 1.623,-0.308 2.244,-0.924 1.247,-1.239 1.254,-3.254 0.014,-4.502 z" />
</svg>